<svg data-name="구성 요소 15 – 26" xmlns="http://www.w3.org/2000/svg" width="27.158" height="25.005" viewBox="0 0 27.158 25.005">
    <g data-name="합치기 5" style="fill:none">
        <path d="m8.4 24.512-2.61-4.438H5a5 5 0 0 1-5-5V5a5 5 0 0 1 5-5h17.158a5 5 0 0 1 5 5v10.073a5 5 0 0 1-5 5H12.73l-2.61 4.438a1 1 0 0 1-1.724 0z" style="stroke:none"/>
        <path d="m9.258 22.032 2.328-3.958h10.572c1.654 0 3-1.346 3-3V5c0-1.654-1.346-3-3-3H5C3.346 2 2 3.346 2 5v10.073c0 1.655 1.346 3 3 3h1.93l2.328 3.96m0 2.972a.991.991 0 0 1-.862-.493l-2.61-4.438H5a5 5 0 0 1-5-5V5a5 5 0 0 1 5-5h17.158a5 5 0 0 1 5 5v10.073c0 2.761-2.239 5-5 5H12.73l-2.61 4.439a.991.991 0 0 1-.862.493z" style="fill:#ddd;stroke:none"/>
    </g>
    <circle data-name="타원 293" cx="1.5" cy="1.5" r="1.5" transform="translate(7.247 8.477)" style="fill:#ddd"/>
    <circle data-name="타원 294" cx="1.5" cy="1.5" r="1.5" transform="translate(12.079 8.477)" style="fill:#ddd"/>
    <circle data-name="타원 295" cx="1.5" cy="1.5" r="1.5" transform="translate(16.911 8.477)" style="fill:#ddd"/>
</svg>
