<svg xmlns="http://www.w3.org/2000/svg" width="23" height="28.245" viewBox="0 0 23 28.245">
    <g data-name="그룹 623">
        <g data-name="그룹 622">
            <path data-name="패스 163" d="M19.211 15.004a6.379 6.379 0 0 1 3.049-5.37 6.611 6.611 0 0 0-5.161-2.807c-2.2-.222-4.3 1.3-5.409 1.3S8.851 6.866 7.029 6.902a6.913 6.913 0 0 0-5.846 3.537c-2.49 4.323-.64 10.728 1.792 14.233 1.185 1.716 2.6 3.643 4.453 3.574 1.792-.069 2.468-1.156 4.631-1.156s2.77 1.156 4.664 1.127c1.923-.04 3.145-1.756 4.319-3.472A15.662 15.662 0 0 0 23 20.724a6.231 6.231 0 0 1-3.789-5.72z"/>
            <path data-name="패스 164" d="M15.652 4.508A6.194 6.194 0 0 0 17.123 0a6.324 6.324 0 0 0-4.157 2.138 5.918 5.918 0 0 0-1.5 4.373 5.242 5.242 0 0 0 4.186-2.003z"/>
        </g>
    </g>
</svg>
