<svg xmlns="http://www.w3.org/2000/svg" width="21.552" height="22.5" viewBox="0 0 21.552 22.5">
    <path data-name="패스 1" d="M17.892 17.5h-5.968A2.453 2.453 0 0 1 9.537 20a2.453 2.453 0 0 1-2.387-2.5H1.182a1.157 1.157 0 0 1-1.074-.875 1.376 1.376 0 0 1 .357-1.375 5.116 5.116 0 0 0 1.91-4V7.5A7.358 7.358 0 0 1 9.537 0 7.358 7.358 0 0 1 16.7 7.5v3.75a5.116 5.116 0 0 0 1.91 4 1.219 1.219 0 0 1 .358 1.375 1.157 1.157 0 0 1-1.076.875z" transform="translate(1.216 1.25)" style="fill:none;stroke:#fff;stroke-width:2.5px;fill-rule:evenodd"/>
</svg>
