<svg xmlns="http://www.w3.org/2000/svg" width="19" height="18" viewBox="0 0 19 18">
    <g data-name="그룹 521">
        <g data-name="사각형 1671" style="stroke:#fff;stroke-width:2px;fill:none">
            <path style="stroke:none" d="M0 0h19v6H0z" transform="translate(0 12)"/>
            <path style="fill:none" d="M1 1h17v4H1z" transform="translate(0 12)"/>
        </g>
        <g data-name="사각형 1672" style="stroke:#fff;stroke-width:2px;fill:none">
            <path d="M7.5 0A7.5 7.5 0 0 1 15 7.5V14H0V7.5A7.5 7.5 0 0 1 7.5 0z" style="stroke:none" transform="translate(2)"/>
            <path d="M7.5 1A6.5 6.5 0 0 1 14 7.5V13H1V7.5A6.5 6.5 0 0 1 7.5 1z" style="fill:none" transform="translate(2)"/>
        </g>
    </g>
    <text data-name="!" transform="translate(8 11)" style="fill:#fff;font-size:10px;font-family:Roboto-Black,Roboto;font-weight:800"><tspan x="0" y="0">!</tspan></text>
</svg>
